<svg id="Layer_1" data-name="Layer 1" xmlns="http://www.w3.org/2000/svg" viewBox="0 0 202.666 231.359"><defs><style>.cls-1{fill:#231f20;}.cls-2{fill:none;stroke:#231f20;stroke-miterlimit:10;stroke-width:16px;}</style></defs><polygon class="cls-1" points="108.152 128.674 0 64.428 105.785 0 191.701 52.081 183.406 65.763 105.805 18.722 31.04 64.257 107.937 109.937 138.127 91.054 106.344 75.033 113.546 60.746 170.699 89.554 108.152 128.674"/><rect class="cls-1" x="113.449" y="177.497" width="16" height="36.042"/><polygon class="cls-1" points="122.441 225.229 113.537 211.935 186.666 162.955 186.666 104.584 146.872 130.262 138.197 116.817 202.666 75.218 202.666 171.496 122.441 225.229"/><polygon class="cls-1" points="99.352 226.883 2.337 172.618 0.181 70.638 107.374 134.969 99.14 148.688 16.79 99.266 18.14 163.125 107.162 212.919 99.352 226.883"/><path class="cls-2" d="M233.894,332.447" transform="translate(-126.871 -100.291)"/><polygon class="cls-1" points="107.392 135.017 87.629 141.589 107.461 154.241 107.392 135.017"/><polygon class="cls-1" points="107.164 212.919 87.018 219.875 107.142 231.359 107.164 212.919"/><polygon class="cls-1" points="113.482 212.305 134.342 217.22 113.505 231.178 113.482 212.305"/><polygon class="cls-1" points="123.579 65.853 106.219 56.84 106.362 75.007 123.579 65.853"/><polygon class="cls-1" points="154.372 125.066 138.203 116.832 138.203 136.683 154.372 125.066"/><polygon class="cls-1" points="175.403 60.832 191.348 70.533 191.775 52.128 175.403 60.832"/><polygon class="cls-1" points="129.462 177.478 113.435 163.428 113.435 186.598 129.462 177.478"/></svg>